<?xml version="1.0" encoding="iso-8859-1"?>
<!-- Uploaded to: SVG Repo, www.svgrepo.com, Generator: SVG Repo Mixer Tools -->
<!DOCTYPE svg PUBLIC "-//W3C//DTD SVG 1.1//EN" "http://www.w3.org/Graphics/SVG/1.1/DTD/svg11.dtd">
<svg fill="#000000" version="1.1" id="Capa_1" xmlns="http://www.w3.org/2000/svg" xmlns:xlink="http://www.w3.org/1999/xlink" 
	 width="800px" height="800px" viewBox="0 0 72.798 72.798"
	 xml:space="preserve">
<g>
	<path d="M65.013,17.033H41.849c-2.124,0-4.043,0.86-5.45,2.24c-1.406-1.38-3.328-2.24-5.449-2.24H7.785
		C3.492,17.033,0,20.527,0,24.818v23.165c0,4.293,3.495,7.783,7.785,7.783H30.95c2.124,0,4.043-0.858,5.449-2.24
		c1.406,1.382,3.329,2.24,5.45,2.24h23.164c4.293,0,7.785-3.495,7.785-7.783V24.818C72.798,20.529,69.306,17.033,65.013,17.033z
		 M70.462,47.984c0,3.011-2.44,5.447-5.449,5.447H42.592v-2.044h-1.095v2.01c-2.84-0.185-5.098-2.527-5.098-5.413
		c0,2.886-2.256,5.232-5.102,5.413v-2.01h-1.095v2.044H7.785c-3.011,0-5.449-2.44-5.449-5.447V24.82c0-3.011,2.44-5.45,5.449-5.45
		h22.417v2.044h1.095v-2.008c2.843,0.181,5.102,2.522,5.102,5.414c0-2.889,2.256-5.233,5.103-5.414v2.008h1.095v-2.044h22.418
		c3.012,0,5.45,2.441,5.45,5.45v23.164H70.462z M30.203,45.94h1.095v2.724h-1.095V45.94z M30.203,40.488h1.095v2.729h-1.095V40.488z
		 M30.203,24.141h1.095v2.723h-1.095V24.141z M30.203,35.039h1.095v2.727h-1.095V35.039z M30.203,29.59h1.095v2.724h-1.095V29.59z
		 M41.502,24.141h1.095v2.723h-1.095V24.141z M41.502,45.94h1.095v2.724h-1.095V45.94z M41.502,29.59h1.095v2.724h-1.095V29.59z
		 M41.502,35.039h1.095v2.727h-1.095V35.039z M41.502,40.488h1.095v2.729h-1.095V40.488z M15.96,25.549h9.537v1.402H15.96V25.549z
		 M15.96,30.887h9.537v1.401H15.96V30.887z M6.423,36.268H25.5v1.401H6.423V36.268z M6.423,41.604H25.5v1.405H6.423V41.604z
		 M6.423,46.994H25.5v1.4H6.423V46.994z M8.057,32.697l0.498-1.54h2.871l0.511,1.54h0.836h0.84l-2.677-7.569h-0.918H9.098
		l-2.677,7.569h0.82H8.057z M9.995,26.815L11,29.854H8.991L9.995,26.815z M46.814,25.549h19.172v1.402H46.814V25.549z
		 M46.814,30.887h19.172v1.401H46.814V30.887z M46.91,36.268h19.076v1.401H46.91V36.268z M46.91,41.604h19.076v1.405H46.91V41.604z
		 M46.91,46.994h19.076v1.4H46.91V46.994z"/>
</g>
</svg>