<?xml version="1.0" encoding="iso-8859-1"?>
<!-- Uploaded to: SVG Repo, www.svgrepo.com, Generator: SVG Repo Mixer Tools -->
<!DOCTYPE svg PUBLIC "-//W3C//DTD SVG 1.1//EN" "http://www.w3.org/Graphics/SVG/1.1/DTD/svg11.dtd">
<svg fill="#000000" version="1.1" id="Capa_1" xmlns="http://www.w3.org/2000/svg" xmlns:xlink="http://www.w3.org/1999/xlink" 
	 width="800px" height="800px" viewBox="0 0 72.798 72.798"
	 xml:space="preserve">
<g>
	<path d="M71.044,21.685v-1.264c0-3.312-2.685-5.629-6.136-5.013l-18.748,3.35h-4.312c-2.124,0-4.043,0.859-5.45,2.24
		c-1.406-1.381-3.328-2.24-5.449-2.24H7.785C3.492,18.758,0,22.251,0,26.543v23.163c0,4.293,3.495,7.783,7.785,7.783H30.95
		c2.124,0,4.043-0.857,5.449-2.24c1.406,1.383,3.329,2.24,5.45,2.24h23.164c4.293,0,7.785-3.492,7.785-7.783V26.543
		C72.796,24.696,72.123,23.018,71.044,21.685z M35.813,26.812h-1.292c-0.076-0.334-0.205-0.633-0.395-0.905
		c-0.484-0.695-1.247-1.181-2.156-1.181c-1.471,0-2.67,1.198-2.67,2.672s1.199,2.67,2.67,2.67c0.869,0,1.605-0.443,2.093-1.085
		c0.225-0.294,0.375-0.628,0.46-1h1.292v5.984h-1.292c-0.085-0.372-0.235-0.705-0.46-0.999c-0.488-0.643-1.224-1.087-2.093-1.087
		c-1.471,0-2.67,1.199-2.67,2.67c0,1.472,1.199,2.67,2.67,2.67c0.869,0,1.605-0.444,2.093-1.087c0.225-0.294,0.375-0.627,0.46-0.999
		h1.292v6.324h-1.292c-0.085-0.372-0.235-0.705-0.46-0.999c-0.488-0.644-1.224-1.088-2.093-1.088c-1.471,0-2.67,1.199-2.67,2.673
		s1.199,2.672,2.67,2.672c0.869,0,1.605-0.442,2.093-1.089c0.225-0.294,0.375-0.627,0.46-0.999h1.292v6.497h-1.292
		c-0.085-0.372-0.235-0.705-0.46-0.999c-0.488-0.642-1.224-1.086-2.093-1.086c-1.471,0-2.67,1.2-2.67,2.673
		c0,1.474,1.199,2.669,2.67,2.669c0.958,0,1.761-0.533,2.233-1.293c0.151-0.242,0.254-0.504,0.319-0.792h1.234
		c-0.115,0.936-0.488,1.786-1.059,2.482c-0.894,1.09-2.233,1.8-3.749,1.8H7.785c-2.684,0-4.865-2.186-4.865-4.866V26.55
		c0-2.685,2.184-4.866,4.865-4.866H30.95c1.516,0,2.854,0.709,3.749,1.801c0.687,0.838,1.119,1.897,1.119,3.065v0.263h-0.004V26.812
		z M33.353,27.979c-0.228,0.539-0.763,0.918-1.384,0.918c-0.827,0-1.502-0.675-1.502-1.502c0-0.829,0.675-1.504,1.502-1.504
		c0.622,0,1.156,0.381,1.384,0.92h-1.384v1.168H33.353z M33.353,35.132c-0.228,0.539-0.763,0.918-1.384,0.918
		c-0.827,0-1.502-0.675-1.502-1.502c0-0.827,0.675-1.502,1.502-1.502c0.622,0,1.156,0.379,1.384,0.918h-1.384v1.168H33.353z
		 M33.353,42.626c-0.228,0.536-0.763,0.919-1.384,0.919c-0.827,0-1.502-0.675-1.502-1.503s0.675-1.506,1.502-1.506
		c0.622,0,1.156,0.382,1.384,0.922h-1.384v1.168H33.353z M33.353,50.29c-0.228,0.534-0.763,0.917-1.384,0.917
		c-0.827,0-1.502-0.675-1.502-1.501c0-0.83,0.675-1.508,1.502-1.508c0.622,0,1.156,0.382,1.384,0.924h-1.384v1.168H33.353z
		 M69.876,20.515v22.903c0,2.717-2.23,5.34-4.973,5.851L41.739,53.57c-1.444,0.263-2.708-0.148-3.575-0.982
		c-0.604-0.582-1.004-1.371-1.124-2.295h1.23c0.066,0.285,0.169,0.547,0.323,0.791c0.47,0.758,1.273,1.294,2.231,1.294
		c1.474,0,2.672-1.198,2.672-2.669c0-1.474-1.198-2.676-2.672-2.676c-0.866,0-1.605,0.444-2.094,1.088
		c-0.227,0.294-0.374,0.63-0.461,0.999H36.98v-6.494h1.291c0.087,0.372,0.236,0.705,0.461,0.999
		c0.488,0.644,1.223,1.088,2.094,1.088c1.474,0,2.672-1.199,2.672-2.671s-1.198-2.673-2.672-2.673c-0.866,0-1.605,0.442-2.094,1.085
		c-0.227,0.295-0.374,0.63-0.461,1.002H36.98v-6.324h1.291c0.087,0.372,0.236,0.705,0.461,0.999
		c0.488,0.642,1.223,1.087,2.094,1.087c1.474,0,2.672-1.199,2.672-2.67c0-1.472-1.198-2.67-2.672-2.67
		c-0.866,0-1.605,0.444-2.094,1.086c-0.227,0.295-0.374,0.628-0.461,1H36.98v-5.984h1.291c0.087,0.372,0.236,0.706,0.461,1
		c0.488,0.642,1.223,1.086,2.094,1.086c1.474,0,2.672-1.199,2.672-2.67c0-1.472-1.198-2.672-2.672-2.672
		c-0.91,0-1.675,0.486-2.154,1.182c-0.191,0.273-0.322,0.572-0.396,0.904h-1.292V26.54c0-1.137,0.399-2.245,1.047-3.197
		c0.908-1.341,2.318-2.366,3.921-2.651l10.851-1.939l12.312-2.198c0.296-0.051,0.586-0.08,0.869-0.08
		c2.256,0,3.896,1.66,3.896,3.944L69.876,20.515L69.876,20.515z M39.439,49.122c0.231-0.54,0.765-0.924,1.387-0.924
		c0.826,0,1.504,0.676,1.504,1.508c0,0.826-0.676,1.501-1.504,1.501c-0.622,0-1.155-0.381-1.387-0.917h1.387v-1.168H39.439z
		 M39.439,41.458c0.231-0.538,0.765-0.922,1.387-0.922c0.826,0,1.504,0.676,1.504,1.506c0,0.828-0.676,1.503-1.504,1.503
		c-0.622,0-1.155-0.381-1.387-0.919h1.387v-1.168H39.439z M39.439,33.964c0.231-0.54,0.765-0.918,1.387-0.918
		c0.826,0,1.504,0.675,1.504,1.502c0,0.827-0.676,1.502-1.504,1.502c-0.622,0-1.155-0.379-1.387-0.918h1.387v-1.168H39.439z
		 M39.439,26.812c0.231-0.54,0.765-0.92,1.387-0.92c0.826,0,1.504,0.675,1.504,1.504c0,0.827-0.676,1.502-1.504,1.502
		c-0.622,0-1.155-0.379-1.387-0.918h1.387v-1.168H39.439z M64.728,21.703l0.287,1.371l-9.537,1.997L55.19,23.7L64.728,21.703z
		 M64.728,27.036l0.287,1.371l-9.537,1.999l-0.287-1.371L64.728,27.036z M64.728,32.422l0.287,1.371l-19.076,4.002l-0.287-1.373
		L64.728,32.422z M64.728,37.756l0.287,1.371l-19.076,3.999l-0.287-1.371L64.728,37.756z M64.728,43.146l0.287,1.37l-19.076,3.999
		l-0.287-1.371L64.728,43.146z M47.433,32.49l0.497-1.645l2.87-0.603l0.511,1.432l0.837-0.176l0.837-0.172l-2.678-7.007
		l-0.922,0.191l-0.917,0.192l-2.678,8.128l0.823-0.171L47.433,32.49z M49.371,26.201l1.004,2.829l-2.007,0.423L49.371,26.201z
		 M17.019,41.381h2.48v2.336h-2.48V41.381z M18.259,31.869h1.283v2.887l-0.668,5.706h-0.617h-0.604l-0.677-5.706v-2.887H18.259z
		 M18.259,28.75c-4.986,0-9.042,4.057-9.042,9.044c0,4.986,4.056,9.042,9.042,9.042c4.988,0,9.042-4.056,9.042-9.042
		C27.301,32.807,23.247,28.75,18.259,28.75z M18.259,45.514c-4.258,0-7.721-3.463-7.721-7.726c0-4.259,3.463-7.723,7.721-7.723
		c4.259,0,7.723,3.464,7.723,7.723C25.981,42.051,22.518,45.514,18.259,45.514z"/>
</g>
</svg>